<?xml version="1.0" standalone="no"?>
<!DOCTYPE svg PUBLIC "-//W3C//DTD SVG 20010904//EN"
 "http://www.w3.org/TR/2001/REC-SVG-20010904/DTD/svg10.dtd">
<svg version="1.0" xmlns="http://www.w3.org/2000/svg"
 width="1300.000000pt" height="1300.000000pt" viewBox="0 0 1300.000000 1300.000000"
 preserveAspectRatio="xMidYMid meet">
<metadata>
Created by potrace 1.11, written by Peter Selinger 2001-2013
</metadata>
<g transform="translate(0.000000,1300.000000) scale(0.100000,-0.100000)"
fill="#000000" stroke="none">
<path d="M470 11698 c17 -29 35 -60 40 -68 6 -8 14 -24 20 -35 5 -11 24 -45
42 -76 26 -44 276 -477 318 -549 5 -8 24 -42 43 -75 19 -33 45 -78 58 -100 30
-53 47 -83 72 -127 12 -21 58 -99 101 -175 44 -76 102 -176 130 -223 28 -47
51 -87 51 -90 0 -3 8 -16 17 -30 8 -14 78 -133 154 -265 76 -132 193 -336 261
-453 67 -117 134 -232 147 -255 13 -23 83 -145 156 -272 73 -126 141 -243 150
-260 10 -16 34 -59 55 -95 21 -36 46 -81 57 -100 11 -19 42 -72 69 -118 27
-45 49 -85 49 -88 0 -2 17 -33 39 -67 34 -54 148 -251 374 -647 33 -58 68
-118 78 -135 10 -16 24 -41 32 -55 26 -45 163 -283 219 -380 30 -52 114 -196
185 -320 71 -124 258 -448 415 -720 157 -272 293 -508 302 -525 9 -16 21 -37
26 -45 40 -62 100 -170 100 -179 0 -6 5 -11 10 -11 6 0 10 -4 10 -9 0 -6 29
-60 65 -121 36 -61 76 -130 89 -153 28 -50 42 -75 136 -237 40 -69 84 -145 98
-170 13 -25 28 -49 32 -55 4 -5 20 -32 35 -60 40 -74 145 -255 170 -295 19
-30 49 -83 135 -234 9 -17 86 -150 170 -296 85 -146 169 -292 187 -325 19 -33
43 -76 55 -95 41 -70 183 -316 198 -343 8 -15 53 -93 100 -174 47 -81 87 -152
89 -158 2 -5 7 -12 10 -15 6 -5 14 -18 59 -99 13 -25 33 -58 43 -73 11 -14 19
-29 19 -33 0 -7 48 -91 157 -273 23 -40 43 -75 43 -78 0 -2 11 -21 24 -42 29
-46 120 -202 130 -222 4 -8 12 -24 19 -35 7 -11 50 -86 96 -167 l85 -147 48
80 c26 44 48 83 48 86 0 3 8 17 19 31 10 15 30 48 44 75 24 42 493 857 546
947 11 19 39 69 63 110 24 41 47 83 53 92 5 9 31 54 58 100 26 46 62 108 80
139 17 30 69 120 115 200 46 79 87 151 93 159 9 14 113 197 189 330 20 36 70
121 110 190 40 69 84 145 98 169 14 25 38 67 53 93 16 27 29 53 29 58 0 6 4
10 9 10 5 0 12 8 16 19 3 10 85 155 182 322 97 167 183 318 193 334 9 17 45
80 79 140 35 61 66 115 70 120 5 6 22 35 38 65 31 55 195 342 212 370 8 12
228 393 387 669 97 168 230 398 292 506 69 120 109 189 137 240 6 11 23 39 38
62 15 24 27 45 27 47 0 3 20 38 44 78 23 40 97 168 164 283 66 116 128 224
139 242 10 17 47 83 83 145 36 62 77 133 91 158 15 25 52 89 83 143 77 133
164 285 188 327 11 19 72 125 136 235 64 110 136 236 161 280 25 44 50 88 56
97 45 75 75 129 76 135 1 5 14 26 28 48 15 22 83 138 152 258 68 119 132 232
143 250 10 17 94 165 187 327 94 162 174 302 179 310 8 14 557 963 609 1054
13 22 42 73 64 111 22 39 64 112 93 163 l53 92 -1932 0 -1932 0 -60 -103 c-32
-56 -60 -104 -60 -107 0 -3 -27 -50 -59 -105 -33 -55 -81 -138 -108 -185 -27
-47 -53 -92 -58 -100 -5 -8 -23 -40 -40 -70 -17 -30 -34 -62 -40 -70 -5 -8
-32 -53 -58 -100 -27 -47 -90 -155 -139 -240 -50 -85 -101 -175 -115 -200 -14
-25 -57 -99 -95 -165 -77 -132 -251 -434 -291 -505 -14 -25 -42 -74 -64 -109
-21 -34 -38 -65 -38 -67 0 -2 -20 -37 -44 -77 -23 -39 -60 -101 -80 -137 -20
-36 -41 -72 -46 -80 -5 -8 -69 -118 -142 -245 -108 -188 -402 -700 -479 -832
-11 -18 -29 -50 -40 -70 -81 -143 -114 -198 -121 -201 -4 -2 -8 -8 -8 -14 0
-9 -138 -257 -150 -268 -3 -3 -12 -18 -20 -35 -8 -16 -19 -37 -26 -45 -6 -8
-29 -46 -50 -85 -20 -38 -55 -98 -76 -133 -21 -34 -38 -65 -38 -67 0 -3 -12
-24 -27 -48 -14 -23 -40 -67 -56 -97 -16 -30 -35 -62 -42 -70 -7 -8 -18 -30
-26 -47 -8 -18 -17 -33 -21 -33 -5 0 -8 -4 -8 -9 0 -5 -63 -118 -141 -252 -77
-133 -151 -261 -163 -283 -21 -36 -54 -94 -119 -206 -11 -19 -28 -48 -38 -65
-11 -16 -22 -37 -26 -45 -3 -8 -25 -46 -48 -85 -23 -38 -68 -116 -100 -173
-32 -56 -62 -99 -66 -95 -4 5 -49 80 -100 168 -50 88 -103 181 -118 206 -32
56 -192 333 -206 357 -83 143 -105 183 -105 192 0 5 -4 10 -9 10 -5 0 -13 10
-17 22 -3 12 -21 44 -39 72 -17 28 -45 76 -62 106 -17 30 -68 121 -115 201
-46 80 -88 152 -91 160 -4 8 -15 28 -26 44 -10 17 -27 46 -38 65 -35 61 -95
164 -113 195 -9 17 -51 89 -92 160 -42 72 -85 146 -96 165 -10 19 -70 123
-132 230 -62 107 -123 213 -135 235 -13 22 -80 139 -150 260 -70 121 -139 240
-153 265 -14 25 -33 57 -43 72 -11 14 -19 28 -19 31 0 3 -38 70 -85 151 -47
80 -85 150 -85 156 0 5 -4 10 -10 10 -5 0 -10 4 -10 9 0 5 -54 102 -120 216
-66 114 -120 209 -120 211 0 3 -9 17 -19 32 -24 34 -378 651 -386 673 -6 15
39 16 523 17 l529 0 14 -29 c8 -16 81 -145 163 -287 82 -141 163 -281 180
-310 17 -30 36 -61 41 -70 6 -9 37 -64 70 -122 32 -58 92 -161 132 -229 40
-67 73 -124 73 -126 0 -1 45 -80 100 -175 55 -94 100 -176 100 -181 0 -5 5 -9
10 -9 6 0 10 -4 10 -10 0 -5 13 -31 29 -58 15 -26 39 -68 53 -93 14 -24 93
-161 176 -304 83 -143 223 -386 311 -540 89 -154 166 -280 171 -280 10 0 510
860 510 876 0 5 5 9 10 9 6 0 10 4 10 9 0 5 38 76 86 157 l85 147 -100 174
c-56 96 -101 179 -101 184 0 5 -4 9 -10 9 -5 0 -10 4 -10 9 0 8 -132 242 -150
266 -4 6 -21 35 -37 65 -17 30 -62 110 -102 177 -39 68 -71 125 -71 128 0 3
-5 11 -10 18 -10 12 -110 184 -161 277 -13 25 -26 47 -29 50 -3 3 -36 59 -74
125 -38 66 -79 138 -91 160 -13 22 -71 123 -130 225 -59 102 -121 209 -137
239 -16 30 -41 70 -54 90 -13 20 -24 39 -24 43 0 10 -64 112 -73 116 -4 2 -7
11 -7 20 0 8 -6 23 -13 31 -13 16 -69 111 -130 221 -17 30 -44 78 -61 105 -17
28 -40 67 -50 88 l-19 37 -1933 0 -1933 0 29 -52z m9954 -1202 c-4 -11 -15
-33 -25 -48 -11 -14 -19 -31 -19 -37 0 -6 -4 -11 -10 -11 -5 0 -10 -4 -10 -9
0 -5 -66 -123 -147 -262 -80 -140 -156 -272 -169 -294 -12 -22 -70 -123 -129
-225 -59 -102 -118 -204 -131 -227 -13 -23 -61 -106 -107 -185 -46 -79 -86
-150 -90 -158 -4 -8 -13 -24 -19 -35 -18 -26 -50 -81 -80 -135 -14 -25 -83
-144 -153 -265 -70 -121 -136 -236 -147 -255 -32 -56 -326 -566 -383 -666 -29
-50 -65 -110 -79 -132 -14 -23 -26 -44 -26 -47 0 -2 -26 -49 -58 -102 -32 -54
-61 -105 -65 -113 -4 -8 -17 -31 -28 -50 -12 -19 -82 -141 -157 -270 -233
-405 -285 -494 -302 -520 -10 -14 -18 -28 -19 -33 0 -4 -7 -17 -15 -30 -12
-19 -83 -142 -151 -262 -13 -22 -80 -139 -150 -260 -70 -121 -137 -238 -150
-260 -23 -42 -90 -158 -190 -330 -63 -109 -140 -243 -317 -550 -64 -110 -130
-224 -147 -253 -17 -29 -31 -54 -31 -56 0 -2 -19 -34 -41 -72 -23 -37 -53 -88
-66 -112 -30 -53 -314 -546 -317 -549 -1 -2 -33 50 -70 115 -37 64 -71 124
-76 132 -20 33 -262 454 -286 498 -14 26 -41 72 -60 103 -19 31 -34 62 -34 68
0 6 34 70 75 141 41 71 75 134 75 139 0 5 4 11 8 13 4 2 19 23 33 48 45 79
431 750 559 970 40 69 86 150 103 180 16 30 34 60 39 67 5 7 18 27 27 45 10
18 68 121 130 228 62 107 205 355 318 550 112 195 209 362 214 370 9 15 348
604 397 690 14 25 50 88 81 140 30 52 59 105 65 117 6 13 14 23 19 23 4 0 7 4
7 9 0 5 38 75 84 154 46 80 86 151 90 159 3 7 16 29 27 48 23 38 162 276 189
325 9 17 68 118 130 225 62 107 126 220 143 250 16 30 38 66 47 80 9 14 45 75
79 135 34 61 71 126 83 145 28 49 164 285 267 465 47 83 89 152 93 153 4 2 8
9 8 16 0 32 22 34 546 34 l525 0 -7 -22z"/>
</g>
</svg>
